<svg xmlns="http://www.w3.org/2000/svg" width="80" height="91.429" viewBox="0 0 80 91.429">
  <path id="calendar-alt" d="M26.429,51.429H19.286a2.149,2.149,0,0,1-2.143-2.143V42.143A2.149,2.149,0,0,1,19.286,40h7.143a2.149,2.149,0,0,1,2.143,2.143v7.143A2.149,2.149,0,0,1,26.429,51.429Zm19.286-2.143V42.143A2.149,2.149,0,0,0,43.571,40H36.429a2.149,2.149,0,0,0-2.143,2.143v7.143a2.149,2.149,0,0,0,2.143,2.143h7.143A2.149,2.149,0,0,0,45.714,49.286Zm17.143,0V42.143A2.149,2.149,0,0,0,60.714,40H53.571a2.149,2.149,0,0,0-2.143,2.143v7.143a2.149,2.149,0,0,0,2.143,2.143h7.143A2.149,2.149,0,0,0,62.857,49.286ZM45.714,66.429V59.286a2.149,2.149,0,0,0-2.143-2.143H36.429a2.149,2.149,0,0,0-2.143,2.143v7.143a2.149,2.149,0,0,0,2.143,2.143h7.143A2.149,2.149,0,0,0,45.714,66.429Zm-17.143,0V59.286a2.149,2.149,0,0,0-2.143-2.143H19.286a2.149,2.149,0,0,0-2.143,2.143v7.143a2.149,2.149,0,0,0,2.143,2.143h7.143A2.149,2.149,0,0,0,28.571,66.429Zm34.286,0V59.286a2.149,2.149,0,0,0-2.143-2.143H53.571a2.149,2.149,0,0,0-2.143,2.143v7.143a2.149,2.149,0,0,0,2.143,2.143h7.143A2.149,2.149,0,0,0,62.857,66.429ZM80,20V82.857a8.574,8.574,0,0,1-8.571,8.571H8.571A8.574,8.574,0,0,1,0,82.857V20a8.574,8.574,0,0,1,8.571-8.571h8.571V2.143A2.149,2.149,0,0,1,19.286,0h7.143a2.149,2.149,0,0,1,2.143,2.143v9.286H51.429V2.143A2.149,2.149,0,0,1,53.571,0h7.143a2.149,2.149,0,0,1,2.143,2.143v9.286h8.571A8.574,8.574,0,0,1,80,20ZM71.429,81.786V28.571H8.571V81.786a1.075,1.075,0,0,0,1.071,1.071H70.357A1.075,1.075,0,0,0,71.429,81.786Z" fill="#f36"/>
</svg>
