<svg id="Arte" xmlns="http://www.w3.org/2000/svg" width="233.762" height="265.935" viewBox="0 0 233.762 265.935">
  <path id="Caminho_22" data-name="Caminho 22" d="M277.2,126.606a3.088,3.088,0,0,1-2.04-.762l-28.736-24.9a22.091,22.091,0,1,1,31.5-29.482,3.13,3.13,0,0,1-5.368,3.187,15.856,15.856,0,1,0-22.493,21.23,3.218,3.218,0,0,1,.3.23l26.723,23.124,26.18-26.081a15.857,15.857,0,0,0-19.524-24.694,3.13,3.13,0,1,1-3.25-5.321,22.091,22.091,0,0,1,27.187,34.427l-28.246,28.121a3.13,3.13,0,0,1-2.227.918Z" transform="translate(-122.634 -59.891)" fill="#fff"/>
  <path id="Caminho_23" data-name="Caminho 23" d="M194.738,105.984a2.87,2.87,0,0,1-.522-.047l-28.423-4.695a3.13,3.13,0,1,1,1.043-6.155l28.423,4.695a3.13,3.13,0,0,1-.522,6.2Z" transform="translate(-87.299 -76.685)" fill="#fff"/>
  <path id="Caminho_24" data-name="Caminho 24" d="M201.147,158.706a3.13,3.13,0,0,1-2.086-5.446L217.625,136.7a3.13,3.13,0,1,1,4.173,4.653l-18.565,16.567A3.13,3.13,0,0,1,201.147,158.706Z" transform="translate(-104.078 -96.194)" fill="#fff"/>
  <path id="Caminho_25" data-name="Caminho 25" d="M182.757,133.435a3.13,3.13,0,0,1-.751-6.145l21.908-5.456a3.13,3.13,0,0,1,1.507,6.051l-21.908,5.461A3.13,3.13,0,0,1,182.757,133.435Z" transform="translate(-95.312 -89.504)" fill="#fff"/>
  <path id="Caminho_26" data-name="Caminho 26" d="M397.895,107.2a3.13,3.13,0,0,1-.355-6.218l21.512-2.5a3.13,3.13,0,1,1,.72,6.2l-21.512,2.5C398.135,107.185,398.015,107.2,397.895,107.2Z" transform="translate(-198.253 -78.319)" fill="#fff"/>
  <path id="Caminho_27" data-name="Caminho 27" d="M427.859,130.547a3.218,3.218,0,0,1-.662-.073l-31.887-6.88a3.13,3.13,0,1,1,1.314-6.1l31.887,6.88a3.13,3.13,0,0,1-.652,6.171Z" transform="translate(-197.144 -87.382)" fill="#fff"/>
  <path id="Caminho_28" data-name="Caminho 28" d="M408.373,147.248a3.1,3.1,0,0,1-1.455-.36l-20.39-10.772a3.13,3.13,0,0,1,2.911-5.519l20.39,10.772a3.13,3.13,0,0,1-1.455,5.879Z" transform="translate(-193.553 -93.593)" fill="#fff"/>
  <path id="Caminho_29" data-name="Caminho 29" d="M224.21,377c-7.047,0-13.933-3.02-20.547-9.029-11.251-10.224-14.47-31.678-12.472-39.957,1.043-4.366,11.747-27.568,19.4-29.43,7.856-1.914,14.846,1,18.2,2.4s9.447,2.332,12.227.475c2.087-1.4,2.029-2.086,1.737-4.731a34.3,34.3,0,0,0-2.034-6.573c-2.045-.5-6.3-1.534-10.526-2.608-3.438-.882-6.192-1.612-8.179-2.18-3.714-1.043-5.107-1.461-5.524-3.13a2.608,2.608,0,0,1,.349-2.034c.7-1.043,1.043-1.565,19.378-4.46l-2.373-5.654A2.514,2.514,0,0,1,236.1,266.6c1.68-.047,6.385-.229,7.955-.522,1.341-.25,3.891-1.622,4.131-2.608.4-1.617-.245-3.438-2.561-9.494l-.193-.522c-1.93-5.044-3.73-9.243-9.3-17.344-3.8-5.529-14.084-12.081-17.694-13.088a2.515,2.515,0,1,1,1.346-4.846c4.94,1.429,16.092,8.732,20.5,15.122,5.874,8.544,7.861,13.2,9.848,18.4l.193.522c2.509,6.562,3.552,9.28,2.744,12.519-1.043,4.173-6.656,6.046-8.1,6.312a48.459,48.459,0,0,1-5.075.449l2.212,5.279a2.52,2.52,0,0,1-1.93,3.458c-3.782.584-7.762,1.236-11.184,1.826,4.173,1.09,9.306,2.368,14.162,3.531a2.5,2.5,0,0,1,1.727,1.461c.261.61,2.53,6.03,2.879,9.144.329,2.984.7,6.369-3.943,9.468-4.773,3.182-12.754,1.732-16.948,0-3.088-1.288-8.831-3.651-15.091-2.16-1.043.256-4.11,2.942-8.951,11.387-3.651,6.369-6.306,12.519-6.745,14.34-1.747,7.23,1.6,26.551,10.954,35.053,7.266,6.6,14.449,8.941,21.966,7.152,24.7-5.894,43.462-54.307,43.65-54.771a2.514,2.514,0,1,1,4.695,1.794c-.8,2.087-19.9,51.38-47.176,57.9a25.768,25.768,0,0,1-5.967.636Z" transform="translate(-100.538 -135.566)" fill="#fff"/>
  <path id="Caminho_30" data-name="Caminho 30" d="M371.292,349.966a2.509,2.509,0,0,1-.647-.089l-21.152-5.649a2.514,2.514,0,0,1,1.3-4.856c7.3,1.956,15.023,4.017,18.779,5.018l2.665-8.909-17.349-4.5a2.519,2.519,0,0,1-1.826-2.973l11.554-52.585a8.272,8.272,0,1,1,16.17,3.495l-3.531,16.353a8.257,8.257,0,0,1,8.294,3.651c.026.047.057.094.089.141a8.263,8.263,0,0,1,12.2,8.9L392.157,333.7a2.514,2.514,0,1,1-4.909-1.085l5.675-25.716a3.236,3.236,0,0,0-6.327-1.356h0a2.514,2.514,0,1,1-4.919-1.043l.089-.4a3.234,3.234,0,0,0-6.04-2.16,2.509,2.509,0,0,1-4.695-1.674l4.83-22.43a3.237,3.237,0,0,0-6.327-1.367L358.5,326.7l17.537,4.543a2.509,2.509,0,0,1,1.774,3.156l-4.116,13.75A2.525,2.525,0,0,1,371.292,349.966Z" transform="translate(-175.667 -159.875)" fill="#fff"/>
  <path id="Caminho_31" data-name="Caminho 31" d="M112.282,231.282h0c-.125,0-12.759-.063-26.9-1.32-12.316-1.1-35.012-6.672-35.992-6.912a2.514,2.514,0,0,1-.662-4.611c.85-.5,21.011-12.211,36.822-14.767,35.909-5.774,65.412,6.682,66.648,7.219a2.514,2.514,0,1,1-1.987,4.616h0c-.292-.125-29.456-12.425-63.847-6.87-9.994,1.612-22.3,7.386-29.362,11.038,7.757,1.774,20.8,4.564,28.815,5.279,13.917,1.236,26.353,1.3,26.478,1.3a2.514,2.514,0,1,1,0,5.029Z" transform="translate(-32.057 -127.943)" fill="#fff"/>
  <path id="Caminho_32" data-name="Caminho 32" d="M62.177,276.9h-.219c-12.373,0-36.175-3.745-37.182-3.907a2.509,2.509,0,0,1-1.3-4.335c.49-.438,12.133-10.766,27.354-16.066C64.2,247.93,87.3,247.273,90,247.648a2.515,2.515,0,0,1-.694,4.982c-2.149-.3-24.548.428-36.822,4.695a83.29,83.29,0,0,0-21.235,11.554c7.95,1.127,22.315,2.989,30.7,3h.23c14.866,0,54.39-1.815,54.771-1.831a2.514,2.514,0,0,1,.235,5.023C116.8,275.075,77.168,276.9,62.177,276.9Z" transform="translate(-20.181 -149.666)" fill="#fff"/>
  <path id="Caminho_33" data-name="Caminho 33" d="M70.207,326.955A162.228,162.228,0,0,1,41,323.851a2.514,2.514,0,0,1-1.388-4.105c.579-.668,14.319-16.389,29.894-21.147a131,131,0,0,1,23.1-5.1,2.515,2.515,0,0,1,.522,5h0a128,128,0,0,0-22.133,4.909C60.907,306.481,51.3,315,46.531,319.746c7.037,1.168,20.964,3.025,32.122,1.742,7.731-.887,14.267-2.165,20.036-3.286,3.8-.741,7.386-1.445,10.672-1.9a2.514,2.514,0,1,1,.689,4.982c-3.13.438-6.51,1.09-10.4,1.852-5.858,1.142-12.519,2.436-20.422,3.349a79.669,79.669,0,0,1-9.019.469Z" transform="translate(-27.998 -171.635)" fill="#fff"/>
  <path id="Caminho_34" data-name="Caminho 34" d="M24.582,458.93a2.942,2.942,0,0,1-2.791-2.034c-3.312-10.255-4.408-16.864-3.651-22.1,1.121-7.824,3.2-22.31,15.722-28.872,6.218-3.255,12.378-1.68,18.335-.156,6.7,1.711,13.041,3.328,19.864-1.565,10.213-7.3,14.5-14.929,21.444-32.769,6.672-17.146,3.161-29.409,3.13-29.529a2.931,2.931,0,1,1,5.618-1.675c.172.579,4.12,14.334-3.281,33.332-7.084,18.194-11.914,27.125-23.473,35.413-9.05,6.463-17.375,4.335-24.725,2.457-5.331-1.361-9.911-2.54-14.162-.329-9.1,4.768-11.293,15.153-12.639,24.516-.605,4.241.454,10.245,3.432,19.467a2.932,2.932,0,0,1-1.888,3.693A2.863,2.863,0,0,1,24.582,458.93Z" transform="translate(-17.912 -192.995)" fill="#fff"/>
  <path id="Caminho_35" data-name="Caminho 35" d="M198.835,266.474a1.71,1.71,0,0,1-.616-.115,1.68,1.68,0,0,1-.944-2.175l4.59-11.684-9.807-5.712a1.68,1.68,0,0,1,.709-3.13l12.561-1.043,3.239-11.215a1.674,1.674,0,0,1,3.13-.219l4.966,11.105,11.825,1.2a1.674,1.674,0,0,1,.767,3.057l-10.245,6.87,3.651,10.276a1.674,1.674,0,0,1-2.358,2.045l-11.33-5.936a1.678,1.678,0,1,1,1.565-2.968l7.532,3.949-2.66-7.464a1.674,1.674,0,0,1,.647-1.951l7.454-5.013-8.174-.829a1.669,1.669,0,0,1-1.361-.981l-3.464-7.777-2.285,7.939a1.68,1.68,0,0,1-1.476,1.2l-8.393.678,6.437,3.75a1.674,1.674,0,0,1,.715,2.087l-5.117,13.041A1.674,1.674,0,0,1,198.835,266.474Z" transform="translate(-100.817 -141.362)" fill="#fff"/>
</svg>
