<svg id="Arte" xmlns="http://www.w3.org/2000/svg" width="197.326" height="267.878" viewBox="0 0 197.326 267.878">
  <path id="Caminho_1" data-name="Caminho 1" d="M196,399.215a2.941,2.941,0,0,1-1.924-.716l-27.075-23.464a20.815,20.815,0,1,1,29.674-27.782,2.941,2.941,0,1,1-5.052,3,14.933,14.933,0,1,0-21.18,20.008,2.5,2.5,0,0,1,.278.214l25.142,21.79,24.663-24.558a14.937,14.937,0,0,0-18.389-23.254,2.941,2.941,0,1,1-3.069-5.016,20.819,20.819,0,0,1,25.621,32.433L198.1,398.363A2.941,2.941,0,0,1,196,399.215Z" transform="translate(-94.406 -184.781)" fill="#fff"/>
  <path id="Caminho_2" data-name="Caminho 2" d="M326.068,264.744a2.854,2.854,0,0,1-.337-.023l-26.159-3.506a8.276,8.276,0,0,1-4.19-14.55,8.266,8.266,0,0,1-1.705-6.265,8.363,8.363,0,0,1,.994-2.932l-16.6-2.28a8.286,8.286,0,0,1,2.28-16.415l53.457,7.213a2.517,2.517,0,0,1,2.17,2.736L334.243,246.6l9.306.552c.666-7.432,2.663-29.683,3.192-35.588.912-10.273.205-21.959-19.584-30.6-1.673-.679-31.917-13.054-43.64-21.143-12.471-8.613-16.278-31.293-14.112-40.275,1.181-4.883,7.172-14.915,14.427-16.679,7.875-1.915,14.883,1,18.239,2.407s9.466,2.335,12.252.456c2.111-1.409,2.029-2.116,1.737-4.742a33.935,33.935,0,0,0-2.038-6.584c-2.047-.5-6.31-1.537-10.542-2.617-3.447-.88-6.21-1.614-8.207-2.184-3.721-1.067-5.116-1.464-5.535-3.146a2.585,2.585,0,0,1,.351-2.034c.7-1.058,1.044-1.569,19.424-4.468l-2.38-5.672a2.517,2.517,0,0,1,2.257-3.493c1.682-.046,6.383-.223,7.97-.515,1.345-.246,3.9-1.619,4.14-2.59.406-1.623-.246-3.447-2.567-9.516l-.2-.506c-1.952-5.043-3.73-9.252-9.315-17.372-3.807-5.54-14.066-12.106-17.714-13.114a2.522,2.522,0,1,1,1.368-4.856c4.947,1.368,16.118,8.7,20.518,15.115,5.886,8.563,7.879,13.223,9.867,18.439l.2.5c2.517,6.58,3.557,9.306,2.736,12.539-1.053,4.2-6.671,6.055-8.116,6.324a48.835,48.835,0,0,1-5.089.456l2.216,5.289a2.517,2.517,0,0,1-1.933,3.465c-3.789.588-7.779,1.24-11.208,1.824,4.19,1.09,9.329,2.371,14.194,3.538a2.521,2.521,0,0,1,1.733,1.464c.255.611,2.535,6.042,2.882,9.16.333,2.991.707,6.383-3.953,9.489-4.783,3.192-12.767,1.737-16.985,0-3.091-1.29-8.846-3.689-15.12-2.161-4.45,1.081-9.666,8.618-10.72,12.963-.761,3.192-.611,10.031,1.532,17.614,2.28,8.057,6.023,14.212,10.546,17.327,11.344,7.829,42.4,20.518,42.706,20.632l.055.027c24.8,10.806,23.327,27.595,22.616,35.665-.62,7.09-3.37,37.722-3.4,38.032a2.521,2.521,0,0,1-2.658,2.28l-14.363-.834a2.517,2.517,0,0,1-2.362-2.759l1.755-18.065-51.068-6.894a3.244,3.244,0,1,0-.9,6.424l22.757,3.16a2.517,2.517,0,0,1-.036,5.016,3.242,3.242,0,0,0-.041,6.429l.4.055h0a2.518,2.518,0,0,1-.693,4.988h0a3.243,3.243,0,1,0-.889,6.425L326.4,259.76a2.517,2.517,0,0,1-.333,5.016Z" transform="translate(-154.725 -13.86)" fill="#fff"/>
  <path id="Caminho_3" data-name="Caminho 3" d="M158.667,33.071h0c-.123,0-12.767-.059-26.957-1.318-12.343-1.1-35.082-6.689-36.021-6.926a2.517,2.517,0,0,1-.707-4.619c.853-.5,21.061-12.243,36.906-14.8,35.971-5.809,65.54,6.694,66.78,7.232a2.521,2.521,0,0,1-1.993,4.628h0c-.292-.128-29.515-12.452-63.985-6.89-10.031,1.619-22.342,7.4-29.428,11.066,7.779,1.778,20.847,4.56,28.881,5.289,13.948,1.24,26.4,1.3,26.533,1.3a2.521,2.521,0,0,1,0,5.016Z" transform="translate(-59.471 -3.872)" fill="#fff"/>
  <path id="Caminho_4" data-name="Caminho 4" d="M104.832,85.32H104.6c-12.4,0-36.254-3.753-37.261-3.912a2.517,2.517,0,0,1-1.29-4.364,89.945,89.945,0,0,1,27.413-16.1c13.4-4.669,36.55-5.326,39.254-4.947a2.521,2.521,0,1,1-.7,4.993c-2.157-.3-24.622.429-36.9,4.71a84.481,84.481,0,0,0-21.28,11.581c7.966,1.131,22.342,3,30.764,3h.233c14.9,0,54.5-1.824,54.9-1.824a2.517,2.517,0,1,1,.233,5.016C159.571,83.5,119.852,85.32,104.832,85.32Z" transform="translate(-43.946 -32.178)" fill="#fff"/>
  <path id="Caminho_5" data-name="Caminho 5" d="M115.274,142.152a163.1,163.1,0,0,1-29.287-3.11,2.517,2.517,0,0,1-1.368-4.1c.579-.67,14.349-16.415,29.957-21.193a132.438,132.438,0,0,1,23.145-5.111,2.521,2.521,0,1,1,.506,5.016h0a128.27,128.27,0,0,0-22.178,4.92c-10.1,3.087-19.711,11.623-24.49,16.374,7.054,1.167,21.015,3.028,32.2,1.746,7.751-.912,14.3-2.17,20.062-3.3,3.807-.743,7.4-1.445,10.7-1.9a2.518,2.518,0,0,1,.688,4.988c-3.155.456-6.52,1.094-10.419,1.851-5.873,1.144-12.53,2.444-20.473,3.356a79.086,79.086,0,0,1-9.037.461Z" transform="translate(-54.174 -60.859)" fill="#fff"/>
  <path id="Caminho_6" data-name="Caminho 6" d="M59.351,356.6a2.941,2.941,0,0,1-1.236-5.608l23.97-11.057a2.823,2.823,0,0,0-2.4-5.111h0a2.941,2.941,0,0,1-2.49-5.326h0l.369-.169a2.822,2.822,0,0,0-1.687-5.335,2.941,2.941,0,0,1-1.755-5.558l20.815-9.721A2.823,2.823,0,0,0,92.55,303.6L46.128,325.062l6.839,16.374a2.936,2.936,0,0,1-1.532,3.826l-14.883,6.5a2.941,2.941,0,0,1-3.83-1.432c-.255-.533-6.238-13.155-8.093-20.313-7.874-30.509-6.429-50.48-4.655-62.85.657-4.582,4.619-27.814,18.239-34.936,9.954-5.216,21.631-3.237,28.607-2.056a42.061,42.061,0,0,0,4.345.611c9.37.342,13.848,0,20.468-4.747,10.255-7.364,14.545-15.006,21.49-32.829,6.639-17.048,3.164-29.483,3.128-29.606a2.938,2.938,0,1,1,5.636-1.664c.173.574,4.1,14.358-3.287,33.4-3.42,8.786-6.452,15.813-10.122,21.544A49.42,49.42,0,0,1,95.062,230.81c-8.312,5.969-14.655,6.187-24.111,5.845a43.911,43.911,0,0,1-5.111-.689c-6.653-1.126-16.7-2.827-24.9,1.468-4.327,2.28-12.379,11.249-15.147,30.55-3.552,24.782.912,46.422,4.56,60.543,1.24,4.779,4.678,12.635,6.516,16.679l9.575-4.186L39.6,324.7a2.941,2.941,0,0,1,1.509-3.789l48.971-22.648a8.7,8.7,0,0,1,7.35,15.758l-14.65,6.839a8.873,8.873,0,0,1,1.477,2.2,8.691,8.691,0,0,1,.365,6.438,8.7,8.7,0,0,1-.059,15.74L60.587,356.309a2.937,2.937,0,0,1-1.236.287Z" transform="translate(-18.577 -88.718)" fill="#fff"/>
  <path id="Caminho_7" data-name="Caminho 7" d="M108.654,384.533a3.458,3.458,0,0,1-.483-.036L81.392,380.05a2.941,2.941,0,0,1,.958-5.8l26.783,4.432a2.936,2.936,0,0,1-.456,5.836Z" transform="translate(-51.466 -205.358)" fill="#fff"/>
  <path id="Caminho_8" data-name="Caminho 8" d="M119.037,439.931a2.936,2.936,0,0,1-1.961-5.13l17.5-15.6a2.941,2.941,0,0,1,3.912,4.386l-17.491,15.608A2.941,2.941,0,0,1,119.037,439.931Z" transform="translate(-71.629 -229.459)" fill="#fff"/>
  <path id="Caminho_9" data-name="Caminho 9" d="M99.2,413.959a2.941,2.941,0,0,1-.707-5.791l20.651-5.143a2.941,2.941,0,0,1,1.418,5.7l-20.651,5.143A2.916,2.916,0,0,1,99.2,413.959Z" transform="translate(-60.852 -220.992)" fill="#fff"/>
  <path id="Caminho_10" data-name="Caminho 10" d="M331.068,386.162a2.941,2.941,0,0,1-.333-5.859L351,377.946a2.941,2.941,0,1,1,.679,5.841l-20.268,2.357a3,3,0,0,1-.347.018Z" transform="translate(-187.001 -207.366)" fill="#fff"/>
  <path id="Caminho_11" data-name="Caminho 11" d="M359.522,410.764a2.9,2.9,0,0,1-.62-.068l-30.048-6.484a2.941,2.941,0,0,1,1.24-5.745l30.048,6.484a2.941,2.941,0,0,1-.62,5.814Z" transform="translate(-186.177 -218.521)" fill="#fff"/>
  <path id="Caminho_12" data-name="Caminho 12" d="M339.636,428.126a2.913,2.913,0,0,1-1.368-.342l-19.214-10.15a2.941,2.941,0,0,1,2.736-5.2l19.223,10.141a2.941,2.941,0,0,1-1.368,5.54Z" transform="translate(-181.265 -225.998)" fill="#fff"/>
  <path id="Caminho_13" data-name="Caminho 13" d="M266.137,72.416a1.642,1.642,0,0,1-.616-.119,1.678,1.678,0,0,1-.948-2.175l4.605-11.714-9.831-5.722a1.683,1.683,0,0,1,.711-3.128l12.589-1.021L275.9,37.293a1.678,1.678,0,0,1,3.146-.214l4.952,11.1,11.855,1.2a1.682,1.682,0,0,1,.761,3.082l-10.25,6.871,3.671,10.3a1.683,1.683,0,0,1-2.362,2.052l-11.353-5.955a1.682,1.682,0,1,1,1.573-2.973l7.546,3.958-2.667-7.478a1.687,1.687,0,0,1,.647-1.961l7.469-5.016-8.207-.83a1.683,1.683,0,0,1-1.368-.985l-3.474-7.792-2.28,7.943a1.683,1.683,0,0,1-1.477,1.208l-8.413.661,6.452,3.757a1.678,1.678,0,0,1,.716,2.066l-5.13,13.05A1.683,1.683,0,0,1,266.137,72.416Z" transform="translate(-149.113 -21.395)" fill="#fff"/>
</svg>
