<svg id="Grupo_3200" data-name="Grupo 3200" xmlns="http://www.w3.org/2000/svg" width="95.518" height="202.51" viewBox="0 0 95.518 202.51">
  <path id="card-temazcal-love-harth" d="M39.535,70.836c-4.747-4.447-8.656-8.049-18.061-20.021C11.458,38.064,7.4,24.533,15.564,16.543c6.91-6.75,16.634-.958,21.68,5.478,5.98,7.634,10.7,21.251,10.7,21.251A88.777,88.777,0,0,1,62.495,24.045c9.186-9.077,17.06-12.386,22.572-7.032,6.841,6.652,6.05,16.782-8.641,33.8-10.745,12.446-6.719,7.291-14.979,17.4-4.972,6.072-11.093,15.331-11.093,15.331S42.586,73.691,39.535,70.836Z" transform="translate(-2.202 -13.525)" fill="#f36"/>
  <path id="card-temazcal-love-indio" d="M101.788,123.58c-.9-.472-2.044-1-3.3-1.544a2.041,2.041,0,0,0,.226.039,4.887,4.887,0,0,0,4.576-2.237c1.319-2.348-.878-5.2-2.334-5.958-2.833-1.477-7.47.155-9.6-5.495-.261-.693-9.492-29.434-11.241-35.566-.058-.207-.138-.376-.2-.572a10.337,10.337,0,0,0-.926-2.592.8.8,0,0,0-.038-.08c-.084-.153-.149-.319-.24-.468-2.044-3.927-8.535-6.947-16.621-7.629A11.914,11.914,0,0,0,70.73,48.749,12.062,12.062,0,0,0,59.448,38.18a27.851,27.851,0,0,0,.231-13.246c-1.4-6.964-4.675-12.555-8.2-14.734-1.64,3.562-2.081,9.084-.884,15.012,1.133,5.623,3.491,10.315,6.205,13.075a11.852,11.852,0,0,0-1.7,23.184c-8.076.688-14.555,3.712-16.6,7.636-.091.15-.157.315-.24.468-.011.027-.027.053-.036.08a10.425,10.425,0,0,0-.922,2.586c-.064.2-.144.356-.2.574-1.751,6.133-10.982,34.873-11.241,35.566-2.119,5.653-6.763,4.022-9.6,5.5-1.457.759-3.644,3.61-2.336,5.958a4.9,4.9,0,0,0,4.578,2.237,2.045,2.045,0,0,0,.226-.039c-1.252.545-2.4,1.069-3.3,1.544-1.64.86-4.587,2.944-4.587,5.7a11.447,11.447,0,0,0,1.173,5.235,7.579,7.579,0,0,0,6.754,4.072c3.514,0,12.17-2.137,21.252-4.649,5.03-1.389,12.753-3.993,18.583-6.02,5.83,2.027,13.549,4.631,18.583,6.02,9.078,2.511,17.734,4.649,21.248,4.649a7.584,7.584,0,0,0,6.754-4.074,11.457,11.457,0,0,0,1.171-5.235C106.368,126.524,103.416,124.44,101.788,123.58Zm-63.839-8.124c-2.294.549-4.21,1.044-5.391,1.4-2.4.753-6.087,2.059-9.6,3.434a4.6,4.6,0,0,0,.43-.285,30.8,30.8,0,0,0,6.963-8.092c.6-.973,7.916-15.4,13.19-25.827l.973,15.158Zm46.714,1.4c-1.164-.356-3.053-.851-5.329-1.395l-6.642-14.1.978-15.272c5.274,10.429,12.589,24.856,13.19,25.827a30.9,30.9,0,0,0,6.965,8.092,4.6,4.6,0,0,0,.43.285C90.742,118.922,87.06,117.616,84.662,116.856Z" transform="translate(-10.85 63.924)" fill="#f36"/>
</svg>
