<svg id="Arte" xmlns="http://www.w3.org/2000/svg" width="200.3" height="288.058" viewBox="0 0 200.3 288.058">
  <path id="Caminho_14" data-name="Caminho 14" d="M63.524,167.583a2.58,2.58,0,0,1-2.062-4.124c.31-.416,31.156-41.806,34.646-54.91,3.684-13.826,2.556-18.134.968-19.315-1.815-1.341-9.265,1.743-16.8,9.638s-15.457,10.03-22.9,11.521c-12.8,2.561-25.429-3.3-25.962-3.553L24.744,103.7,31.9,102c.058,0,2.474-.6,5.693-1.491A36.792,36.792,0,0,1,16.069,91.93L10.26,86.653l7.8.808A101.958,101.958,0,0,0,30.48,87.8C19.453,85.53,11.025,75.926,10.632,75.466L5.84,69.923l7.208,1.322c.131,0,13.07,2.362,22.157,1.4,8.263-.871,21.387-5.92,27.685-9.227,8.229-4.328,11.158-5.964,17.993-11.579.421-.344.833-.687,1.244-1.031,5.359-4.454,11.434-9.5,18.511-4.657,4.875,3.335,3.718,10.543,2.875,15.81a30.14,30.14,0,0,0-.484,3.989c0,2.977.586,3.689,3.282,4,1.8.213,6.743-2.508,9.019-6.947,2-3.907,3.766-9.808,5.189-14.552.615-2.053,1.167-3.9,1.685-5.436a6.984,6.984,0,0,1,3.848-10.781c1.67-4.231,4.8-10.771,8.6-17.945C141.588,1.173,142.706.689,143.519.336a2.692,2.692,0,0,1,2.13,0c2.232.968,1.752,3.442,1.026,7.174-.484,2.474-1.244,5.886-2.207,9.875-1.7,7.053-3.732,14.639-5.131,19.223a6.369,6.369,0,0,1,.484.779,7.063,7.063,0,0,1-3.059,9.5,7.746,7.746,0,0,1-1.017.421c-.62,1.748-1.559,3.907-2.6,6.293-2.067,4.754-4.638,10.65-5.277,14.852a15.006,15.006,0,0,0-.1,3.5,2.577,2.577,0,1,1-5.136.431,20.028,20.028,0,0,1,.145-4.705c.736-4.841,3.34-10.844,5.64-16.13a68.98,68.98,0,0,0,2.851-7.16l.484-1.825,1.888-.087a1.862,1.862,0,0,0,1.128-3.287l-1.293-1.118.523-1.622c1.515-4.72,3.718-13.027,5.451-20.191-3.563,6.7-7.474,14.644-9.091,19.17l-.6,1.685-1.791.029a1.883,1.883,0,0,0-.833.189,1.9,1.9,0,0,0-.828,2.556,1.859,1.859,0,0,0,.484.6l1.423,1.181-.663,1.728c-.605,1.578-1.3,3.873-2.1,6.569-1.452,4.943-3.321,11.1-5.538,15.423C116.977,71.1,110.33,75.64,105.7,75.1c-7.019-.833-7.833-5.606-7.833-9.125a33.2,33.2,0,0,1,.557-4.807c.591-3.684,1.486-9.246-.7-10.737-3.51-2.42-6.293-.615-12.3,4.357l-1.268,1.05c-7.2,5.916-10.476,7.745-18.879,12.155-6.409,3.389-20.23,8.81-29.529,9.793a77.694,77.694,0,0,1-15.2-.29c3.732,2.754,8.839,5.552,14.261,5.635A49.1,49.1,0,0,0,53.13,79.934l4.792-2.082-1.268,5.068c-.261,1.055-1.627,3.839-8.6,6.869-5.867,2.551-13.947,3.2-20.332,3.248a28.348,28.348,0,0,0,16.338,1.878c8.147-1.564,17.679-7.653,17.776-7.716l8.83-5.678-5.2,9.125c-.257.45-2.745,4.531-11.2,9.29-3.161,1.777-8.35,3.524-12.8,4.841a36.048,36.048,0,0,0,14.866.576c6.918-1.384,13.661-3.19,20.186-10.025,7.455-7.813,18.023-14.343,23.594-10.224,4.429,3.272,4.715,10.684.968,24.785s-34.206,54.939-35.5,56.672A2.58,2.58,0,0,1,63.524,167.583Z" transform="translate(-5.84 -0.116)" fill="#fff"/>
  <path id="Caminho_15" data-name="Caminho 15" d="M213.187,237.028a2.58,2.58,0,0,1-2.566-2.333c-.16-1.689-3.848-41.477.968-56.091,4.386-13.259,12.034-18.584,17.659-17.974,6.889.745,10.238,12.7,10.432,23.5a48.452,48.452,0,0,0,7.557,24.659c4.381,6.574,9.779,8.229,13.5,8.457-2.653-3.331-6.172-8.229-7.552-12.5-2.977-9.232-2.14-13.472-2.009-13.927l2.111-9.048,2.851,8.839a60.861,60.861,0,0,0,7.745,15.186,25.46,25.46,0,0,0,13.9,9.14,30.02,30.02,0,0,1-7.915-9.929c-2.658-5.9-2.571-8.467-2.483-9.115l.992-7.121,3.757,6.129h0s1.8,2.677,9.464,9.522c4.294,3.839,10.4,4.812,15.1,4.894a73.5,73.5,0,0,1-10.742-9.653c-6.172-6.976-16.87-20.753-19.475-28.029-3.19-8.931-4.357-12.489-5.649-21.721-.077-.547-.15-1.094-.223-1.631-1.036-7.745-1.878-10.936-6.095-11.545-2.6-.382-5.727,4.318-7.784,7.426a32.917,32.917,0,0,1-2.846,3.916c-2.382,2.585-6.216,5.552-11.938,1.409-2.28-1.646-3.97-5.349-4.42-9.682a2.58,2.58,0,0,1,5.131-.533c.334,3.243,1.549,5.47,2.309,6.017,2.2,1.593,3.113,1.452,5.126-.726a30.359,30.359,0,0,0,2.338-3.263c2.943-4.449,6.981-10.539,12.823-9.682,8.486,1.23,9.536,9.057,10.461,15.975l.218,1.6c1.23,8.762,2.275,11.952,5.4,20.7,2.232,6.245,12.141,19.175,18.468,26.359,6.051,6.879,15.578,12.852,15.675,12.911l5.538,3.456-6.4,1.263c-.663.126-16.072,3.045-25.933-5.146a45.315,45.315,0,0,0,10.364,7.745l8.229,4.231-9.232.629c-.624.044-13.07.779-22.984-6.981,1.544,1.912,2.725,3.2,2.759,3.234l2.784,3.026-3.931,1.172c-4.87,1.452-16.1,1.244-23.7-10.166a53.806,53.806,0,0,1-8.423-27.428c-.194-10.911-3.587-18.226-5.809-18.473-2.779-.3-8.534,3.389-12.209,14.469-4.5,13.593-.789,53.584-.75,53.985A2.58,2.58,0,0,1,213.458,237Z" transform="translate(-110.715 -67.92)" fill="#fff"/>
  <path id="Caminho_16" data-name="Caminho 16" d="M160.992,536.961a2.566,2.566,0,0,1-1.82-.75l-23.086-22.989a18.1,18.1,0,0,1,22.268-28.208,2.58,2.58,0,1,1-2.687,4.4,12.94,12.94,0,0,0-15.922,20.167l21.382,21.3L182.911,512l.247-.189a12.94,12.94,0,1,0-18.347-17.33,2.577,2.577,0,1,1-4.429-2.633A18.09,18.09,0,1,1,186.174,516l-23.5,20.365a2.555,2.555,0,0,1-1.685.6Z" transform="translate(-70.308 -248.904)" fill="#fff"/>
  <path id="Caminho_17" data-name="Caminho 17" d="M218.653,393.013a2.58,2.58,0,0,1-2.566-2.391l-5.475-74.22a2.577,2.577,0,1,1,5.141-.378l5.475,74.22A2.58,2.58,0,0,1,218.847,393Z" transform="translate(-111.481 -161.865)" fill="#fff"/>
  <path id="Caminho_18" data-name="Caminho 18" d="M238.976,400.391a2.536,2.536,0,0,1-.726-.107,2.575,2.575,0,0,1-1.743-3.2l21.2-72.168a2.58,2.58,0,1,1,4.947,1.452l-21.208,72.168A2.58,2.58,0,0,1,238.976,400.391Z" transform="translate(-124.789 -166.677)" fill="#fff"/>
  <path id="Caminho_19" data-name="Caminho 19" d="M260.319,433.881a2.58,2.58,0,0,1-1.82-4.4l55.956-55.946a2.576,2.576,0,1,1,3.645,3.64l-55.956,55.956A2.571,2.571,0,0,1,260.319,433.881Z" transform="translate(-135.803 -192.378)" fill="#fff"/>
  <path id="Caminho_20" data-name="Caminho 20" d="M252.573,449.926a2.583,2.583,0,0,1-2.295-3.752l15.394-30.1a2.577,2.577,0,0,1,4.589,2.348l-15.394,30.1a2.571,2.571,0,0,1-2.295,1.4Z" transform="translate(-131.803 -213.99)" fill="#fff"/>
  <path id="Caminho_21" data-name="Caminho 21" d="M267.767,491.049a2.58,2.58,0,0,1-.833-5.02l30.788-10.519a2.58,2.58,0,0,1,1.67,4.88L268.6,490.908a2.639,2.639,0,0,1-.833.14Z" transform="translate(-139.644 -245.32)" fill="#fff"/>
</svg>
