<svg xmlns="http://www.w3.org/2000/svg" width="70.18" height="94.95" viewBox="0 0 70.18 94.95">
  <g id="noun_map_pin_3340685" data-name="noun_map pin_3340685" transform="translate(0)">
    <path id="Caminho_2904" data-name="Caminho 2904" d="M50,2.5c-19.38,0-35.09,14.93-35.09,33.34a31.54,31.54,0,0,0,.3,4.15C18.21,66,47.72,96,47.72,96a5.49,5.49,0,0,0,1.52,1.16h0l1,.29,1-.29h0A5.91,5.91,0,0,0,52.78,96S81.87,66,84.8,39.93a32.67,32.67,0,0,0,.29-4.09C85.09,17.43,69.38,2.5,50,2.5Zm0,46.1c-7.59,0-13.75-5.85-13.75-13.06S42.41,22.48,50,22.48s13.75,5.85,13.75,13.06S57.59,48.6,50,48.6Z" transform="translate(-14.91 -2.5)" fill="#f36"/>
  </g>
</svg>
