<svg xmlns="http://www.w3.org/2000/svg" width="68" height="66" viewBox="0 0 68 66">
  <g id="Grupo_3203" data-name="Grupo 3203" transform="translate(0)">
    <g id="Componente_6_13" data-name="Componente 6 – 13" transform="translate(0)">
      <ellipse id="Elipse_3" data-name="Elipse 3" cx="33.5" cy="33" rx="33.5" ry="33" transform="translate(0 0)" fill="#f36"/>
      <path id="card-temazcal-love-harth" d="M17.68,26.66a33.1,33.1,0,0,1-4.129-4.588c-2.29-2.922-3.219-6.023-1.351-7.854,1.58-1.547,3.8-.22,4.956,1.255a20.752,20.752,0,0,1,2.446,4.87,20.343,20.343,0,0,1,3.326-4.406c2.1-2.08,3.9-2.839,5.16-1.612,1.564,1.524,1.383,3.846-1.975,7.747-2.456,2.852-1.536,1.671-3.424,3.987-1.137,1.392-2.536,3.514-2.536,3.514S18.377,27.314,17.68,26.66Z" transform="translate(13.402 -8.247)" fill="#fff"/>
      <path id="card-temazcal-love-indio" d="M37.517,43.53c-.263-.139-.6-.294-.966-.454a.6.6,0,0,0,.066.012,1.432,1.432,0,0,0,1.342-.658c.387-.69-.258-1.528-.684-1.751-.831-.434-2.19.046-2.815-1.615-.076-.2-2.783-8.652-3.3-10.455-.017-.061-.041-.11-.06-.168a3.043,3.043,0,0,0-.271-.762.235.235,0,0,0-.011-.024c-.025-.045-.044-.094-.071-.138-.6-1.155-2.5-2.042-4.874-2.243a3.5,3.5,0,0,0,2.533-3.742A3.541,3.541,0,0,0,25.1,18.425a8.207,8.207,0,0,0,.068-3.894,6.779,6.779,0,0,0-2.4-4.331,7.555,7.555,0,0,0-.259,4.413,7.81,7.81,0,0,0,1.82,3.844,3.486,3.486,0,0,0-.5,6.815c-2.368.2-4.268,1.091-4.868,2.245-.027.044-.046.093-.071.138,0,.008-.008.016-.011.024a3.07,3.07,0,0,0-.27.76c-.019.058-.042.1-.059.169-.513,1.8-3.22,10.252-3.3,10.455-.621,1.662-1.983,1.182-2.814,1.616-.427.223-1.068,1.061-.685,1.751a1.436,1.436,0,0,0,1.343.658.6.6,0,0,0,.066-.012c-.367.16-.7.314-.966.454-.481.253-1.345.866-1.345,1.676a3.372,3.372,0,0,0,.344,1.539,2.222,2.222,0,0,0,1.98,1.2,35.055,35.055,0,0,0,6.232-1.367c1.475-.408,3.74-1.174,5.449-1.77,1.71.6,3.973,1.361,5.449,1.77a35.029,35.029,0,0,0,6.231,1.367,2.223,2.223,0,0,0,1.98-1.2A3.375,3.375,0,0,0,38.86,45.2C38.86,44.4,37.995,43.783,37.517,43.53ZM18.8,41.141c-.673.161-1.235.307-1.581.412-.705.221-1.785.605-2.815,1.01a1.35,1.35,0,0,0,.126-.084A9.048,9.048,0,0,0,16.569,40.1c.177-.286,2.321-4.527,3.868-7.592l.285,4.456Zm13.7.412c-.341-.1-.9-.25-1.563-.41L28.984,37l.287-4.489c1.547,3.066,3.692,7.307,3.868,7.592a9.076,9.076,0,0,0,2.042,2.379,1.347,1.347,0,0,0,.126.084C34.278,42.16,33.2,41.777,32.5,41.553Z" transform="translate(8.667 11.7)" fill="#f2f2f2"/>
    </g>
  </g>
</svg>
